<?xml version="1.0" encoding="utf-8"?>
<!-- Generator: Adobe Illustrator 27.2.0, SVG Export Plug-In . SVG Version: 6.00 Build 0)  -->
<svg version="1.1" id="Livello_1" xmlns="http://www.w3.org/2000/svg" xmlns:xlink="http://www.w3.org/1999/xlink" x="0px" y="0px"
	 viewBox="0 0 100 100" style="enable-background:new 0 0 100 100;" xml:space="preserve">
<style type="text/css">
	.st0{fill:#FFFFFF;}
</style>
<g>
	<path class="st0" d="M100,100c-33.3,0-66.7,0-100,0C0,66.7,0,33.3,0,0c33.3,0,66.7,0,100,0C100,33.3,100,66.7,100,100z M50.3,4
		C25.2,3.9,4.3,24.3,4,49.3C3.8,74.8,24.1,95.7,49.4,96C74.9,96.2,95.8,75.7,96,50.5C96.1,25,75.7,4.2,50.3,4z"/>
	<path d="M50.3,4C75.7,4.2,96.1,25,96,50.5C95.8,75.7,74.9,96.2,49.4,96C24.1,95.7,3.8,74.8,4,49.3C4.3,24.3,25.2,3.9,50.3,4z
		 M49.9,8C26.8,8.1,8,26.9,8,50c0,23.2,18.7,41.9,41.8,42C73.2,92,92.1,73.1,92,49.7C91.9,26.7,73,8,49.9,8z"/>
	<path class="st0" d="M49.9,8C73,8,91.9,26.7,92,49.7C92.1,73.1,73.2,92,49.9,92C26.8,91.9,8,73.1,8,50C8,26.9,26.8,8.1,49.9,8z
		 M75.8,30.4c-17.4,0-34.5,0-51.4,0c0,13.4,0,26.4,0,39.4c17.3,0,34.2,0,51.4,0C75.8,56.6,75.8,43.6,75.8,30.4z"/>
	<path d="M75.8,31.8v36.6c0,0.8-0.6,1.4-1.4,1.4H25.8c-0.8,0-1.4-0.6-1.4-1.4V31.8c0-0.8,0.6-1.4,1.4-1.4h48.6
		C75.1,30.4,75.8,31,75.8,31.8z M72.5,35.6c-0.3-0.4-0.5-0.7-0.8-1.1c-14.5,0-29.1,0-43.6,0c-0.2,0.4-0.4,0.7-0.5,1.1
		c6.9,5.9,13.7,11.9,20.7,17.7c0.7,0.6,2.9,0.6,3.6,0C58.8,47.5,65.6,41.5,72.5,35.6z M71.7,65.7c0.3-0.4,0.5-0.9,0.8-1.3
		c-4.6-3.7-9.2-7.3-13.7-10.9c-8.9,5.9-8.9,5.9-17.5-0.1c-4.5,3.7-9.1,7.4-13.6,11.2c0.2,0.4,0.5,0.7,0.7,1.1
		C42.8,65.7,57.2,65.7,71.7,65.7z M71.7,41.6c-3.8,3.3-6.8,6-10.2,9c3.6,2.8,6.6,5.2,10.2,8.1C71.7,52.8,71.7,47.8,71.7,41.6z
		 M28.5,41.8c0,5.9,0,11,0,16.8c3.7-3,6.7-5.4,10-8.1C35,47.5,32,44.9,28.5,41.8z"/>
	<path class="st0" d="M72.5,35.6c-6.9,5.9-13.7,11.9-20.7,17.6c-0.7,0.6-2.9,0.6-3.6,0c-7-5.8-13.8-11.7-20.7-17.7
		c0.2-0.4,0.4-0.7,0.5-1.1c14.5,0,29.1,0,43.6,0C71.9,34.9,72.2,35.3,72.5,35.6z"/>
	<path class="st0" d="M71.7,65.7c-14.5,0-28.9,0-43.4,0c-0.2-0.4-0.5-0.7-0.7-1.1c4.6-3.8,9.2-7.5,13.6-11.2
		c8.6,5.9,8.6,5.9,17.5,0.1c4.5,3.6,9.1,7.3,13.7,10.9C72.2,64.8,71.9,65.3,71.7,65.7z"/>
	<path class="st0" d="M71.7,41.6c0,6.2,0,11.2,0,17.1c-3.6-2.9-6.6-5.3-10.2-8.1C64.9,47.6,68,44.9,71.7,41.6z"/>
	<path class="st0" d="M28.5,41.8c3.6,3.1,6.5,5.7,10,8.7c-3.3,2.7-6.3,5.1-10,8.1C28.5,52.8,28.5,47.7,28.5,41.8z"/>
</g>
</svg>
